<svg xmlns="http://www.w3.org/2000/svg" xml:space="preserve" id="Layer_1" width="100%" x="0" y="0" viewBox="0 0 1008 960"><path fill="#698f26" d="M283.106 514.79c-11.672-30.602-19.673-61.887-27.308-93.258-10.639-43.71-22.098-87.15-39.844-128.644-8.793-20.558-18.876-40.453-31.278-59.112-.83-1.248-1.642-2.513-2.375-3.82-.639-1.136-1.564-2.33-.662-3.69.894-1.35 2.29-1.103 3.626-.833 7.008 1.417 14.049 2.694 21.02 4.28 39.303 8.938 78.332 18.85 115.823 33.956 41.667 16.79 79.844 39.22 111.963 70.984 44.087 43.6 70.95 96.485 83.163 157 4.877 24.163 7.21 48.606 8.316 73.263 1.175 26.166.452 52.308.703 78.458.29 30.318 2.01 60.543 4.832 90.722.405 4.335 1.017 8.804-.391 13.056-2.201.25-2.475-1.222-3.027-2.38A2188 2188 0 0 1 459.66 586.43c-23.6-61.53-52.894-120.116-91.678-173.639-27.048-37.327-56.994-72.153-90.657-103.71-2.307-2.163-4.775-4.156-7.188-6.204-.469-.397-1.033-.681-2.143-1.4 1.738 5.245 5.39 8.293 8.36 11.722 33.874 39.115 64.98 80.317 92.5 124.128 28.254 44.982 51.709 92.435 70.697 142.057 22.451 58.672 47.102 116.392 74.33 173.008 2.815 5.852 5.381 11.824 8.005 17.765.575 1.305 1.703 2.556.878 4.23-1.544.682-2.058-.611-2.601-1.501-22.426-36.756-54.257-63.637-90.26-86.18-25.443-15.932-50.424-32.504-72.262-53.331-31.058-29.622-53.006-65.253-69.115-104.735-1.823-4.47-3.506-8.998-5.42-13.85m512.411 15.677c-9.738 39.584-21.086 78.208-37.741 115.088-12.922 28.612-29.254 54.988-51.309 77.544-17.39 17.785-37.858 31.545-59.098 44.154-33.096 19.647-65.916 39.729-98.279 60.559-1.12.721-2.246 1.443-3.413 2.082-5.162 2.824-7.08 1.854-7.998-4.079-4.35-28.085.978-55.005 10.14-81.375 11.461-32.992 28.768-62.918 48.397-91.641 30.12-44.073 63.395-85.695 97.152-126.993 34.24-41.89 75.325-76.221 117.709-109.242 8.936-6.963 17.791-14.032 26.736-20.984 1.494-1.16 2.89-2.832 5.172-2.336 1.05 1.526.018 2.623-.68 3.676-19.174 28.962-29.23 61.485-37.177 94.852-3.047 12.795-6.332 25.533-9.611 38.695"/><path fill="#25531e" d="M535 81.658c38.319.001 76.137-.038 113.956.017 34.201.049 62.32 25.174 66.51 59.065 1.458 11.805.56 23.616.752 35.422.203 12.492-.132 24.993.122 37.483.092 4.538-1.072 7.415-5.468 9.374-4.795 2.137-9.2 5.145-13.742 7.754-2.218-2.09-1.429-4.386-1.434-6.412-.06-24.49-.015-48.98-.048-73.47-.036-27.462-20.947-48.516-48.392-48.538q-128.2-.106-256.4-.063c-28.63.01-49.63 20.83-49.755 49.403-.14 31.82-.022 63.642-.045 95.463-.002 2.095.455 4.317-1.35 6.844-5.775-2.374-11.584-4.685-17.32-7.165-1.818-.786-1.7-2.692-1.7-4.372.016-32.987-.574-65.99.238-98.956.706-28.694 24.928-54.904 54.242-60.76 4.105-.82 8.214-1.114 12.392-1.11 48.98.034 97.961.021 147.442.021M320.665 748V617.927c2.487-.476 3.08.926 3.906 1.872 2.192 2.508 3.974 5.528 6.558 7.513 8.562 6.574 10.13 15.124 9.987 25.475-.506 36.814-.324 73.641-.013 110.46.177 20.944 10.15 36.102 29.076 45.15 6.104 2.919 12.702 3.722 19.467 3.711 33.49-.052 66.978.019 100.467.008 8.487-.003 16.97.868 25.462.03 3.738-.37 5.883.802 5.898 5.219.012 3.775 1.034 7.55 1.65 11.32.463 2.842-.364 4.56-3.575 4.484-1.997-.047-3.998.044-5.997.045-40.487.008-80.973.032-121.46.013-37.501-.017-64.877-22.809-70.94-59.784-1.331-8.122-.384-16.619-.486-25.443m330.183 64.08c25.197-1.977 45.037-22.944 44.591-47.651-.141-7.842 1.963-13.249 8.515-17.461 3.814-2.453 7.013-5.863 10.766-9.08.698 1.286 1.26 1.84 1.261 2.395.04 16.591 1.65 33.27-4.592 49.353-9.992 25.74-34.915 43.37-62.568 43.55-22.658.146-45.317.057-67.976.023-1.907-.003-4.037.592-5.564-1.154-.415-1.78.868-2.452 1.928-3.197 1.362-.957 2.952-1.643 4.163-2.752 13.564-12.424 29.577-16.094 47.52-14.143 7.08.77 14.314.131 21.956.117"/><path fill="#f0c126" d="M656.503 489.3c6.243 4.396 8.147 9.422 5.862 16.183-2.876 8.508-5.88 16.983-9.19 25.33-3.323 8.384-10.03 11.32-18.592 8.379-7.396-2.54-14.765-5.183-22.032-8.07-7.146-2.839-10.504-9.19-8.22-16.562a293 293 0 0 1 9.53-26.257c3.366-8.05 10.097-10.695 18.38-7.836 8.017 2.767 15.957 5.76 24.262 8.833m-9.653-67.878c2.353-.66 4.32-.825 6.288-.152 8.18 2.797 16.449 5.365 24.51 8.468 6.943 2.672 9.998 8.715 7.73 15.686-2.98 9.16-6.276 18.253-10.073 27.1-3.318 7.733-10.159 10.285-18.142 7.58-7.086-2.4-14.161-4.843-21.167-7.464-8.297-3.104-11.382-8.795-8.932-17.33 2.618-9.117 6.346-17.862 10.41-26.435 1.798-3.791 4.896-6.234 9.377-7.453m-49.558 170.367c-13.278-5.185-15.674-10.052-11.54-23.141 2.201-6.97 4.335-13.97 6.835-20.835 2.96-8.13 9.332-11.041 17.539-8.244 7.08 2.413 14.111 4.97 21.145 7.516 9.694 3.51 13.204 13.173 7.244 21.73-6.266 8.997-13.31 17.451-20.003 26.151-1.949 2.534-4.503 2.601-7.201 1.707-4.576-1.516-9.114-3.145-14.019-4.884m52.897-192.145c2.744-8.314 6.298-15.847 10.088-23.233 3.894-7.588 10.731-10.298 18.9-7.796 6.512 1.994 12.98 4.18 19.334 6.623 7.883 3.03 10.573 9.287 7.67 17.3-2.32 6.404-4.706 12.79-7.257 19.106-3.886 9.623-10.464 12.715-20.192 9.586-6.489-2.087-12.943-4.28-19.393-6.485-7.888-2.696-10.038-6.153-9.15-15.101m79.022 40.268c-5.169-1.982-10.027-3.701-14.782-5.667-7.67-3.171-10.65-8.864-8.157-16.769 2.496-7.91 5.426-15.711 8.644-23.36 2.921-6.942 9.342-9.603 16.467-7.171 5.182 1.769 10.268 3.844 15.311 5.986 7.84 3.33 10.445 9 7.864 17.384-2.197 7.14-4.605 14.221-7.1 21.265-3.232 9.12-8.928 11.75-18.247 8.332m-145.463 14.52c-4.93-3.945-6.057-8.702-4.005-14.093 3.196-8.395 6.356-16.82 10.027-25.01 3.54-7.898 8.662-10.201 17.03-8.172 5.003 1.214 9.956 2.712 14.817 4.411 6.31 2.207 9.118 8.103 6.788 14.446-3.21 8.742-6.547 17.448-10.176 26.023-3.53 8.339-8.913 10.823-17.678 8.286-5.577-1.614-11.001-3.76-16.803-5.891m-14.753 60.714c-9.635-3.958-11.857-8.43-9.022-18.171 2.325-7.989 4.711-15.967 7.367-23.85 3.21-9.533 8.141-11.922 17.601-8.887 4.596 1.473 9.23 2.868 13.716 4.633 5.993 2.358 8.624 7.387 6.956 13.682-2.687 10.145-6.449 19.959-10.38 29.667-2.764 6.82-7.973 8.908-15.017 6.809-3.667-1.093-7.243-2.49-11.221-3.883M725.17 345.935c-2.16 5.298-4.037 10.29-6.278 15.112-3.255 7.005-9.024 9.61-16.389 7.377-7.161-2.172-14.256-4.572-21.332-7.014-6.457-2.227-9.103-7.312-6.819-13.793 2.49-7.062 5.728-13.86 9.835-20.125 4.164-6.353 10.279-8.4 17.407-6.328a380 380 0 0 1 14.277 4.473c11.603 3.876 13.692 8.35 9.299 20.298m-82.337 47.761c-5.574 10.589-9.58 12.383-20.773 9.43-4.183-1.103-8.381-2.197-12.474-3.586-5.606-1.903-8.121-6.277-6.108-11.743 3.455-9.376 7.7-18.462 13.333-26.753 3.251-4.785 7.994-6.657 13.945-5.56 5.103.94 10.075 2.303 14.95 3.962 6.76 2.302 8.912 7.194 6.154 13.8-2.822 6.76-5.897 13.415-9.027 20.45M759.39 269.33c-5.487 10.5-8.359 11.702-19.286 8.323-4.446-1.375-8.926-2.656-13.321-4.18-4.876-1.692-6.542-5.157-4.296-9.764 3.372-6.914 8.128-12.937 13.423-18.487 2.96-3.103 7.031-.738 10.499-1.627-3.76-8.906-1.767-13.285 7.749-16.855 5.553-2.083 11.37-2.57 17.203-1.848 5.497.68 7.77 4.68 5.54 9.741-1.804 4.1-4.068 8-6.16 11.972-1.24 2.353-3.28 3.683-6.272 3.984 2.055 7.388-2.346 12.623-5.078 18.741M544.999 557.389c1.957-9.211 3.75-18.007 5.713-26.764 1.853-8.263 6.66-10.8 14.655-7.898 4.068 1.477 8.184 2.851 12.156 4.559 6.383 2.744 8.958 8.45 6.996 15.152-2.524 8.623-5.061 17.243-7.719 25.825-2.745 8.865-8.131 11.623-16.788 8.302-6.097-2.338-13.096-3.784-14.827-11.798-.503-2.33-.492-4.619-.186-7.378m186.939-178.165c-5.276-3.146-6.748-7.546-5.386-12.973 2.029-8.087 5.33-15.723 8.914-23.198 2.33-4.863 8.734-7.313 13.628-5.526a223 223 0 0 1 16.123 6.602c5.138 2.345 7.444 6.533 6.638 12.135-1.238 8.606-4.153 16.773-7.756 24.623-2.663 5.804-7.734 7.627-13.693 5.466-6.084-2.207-12.085-4.644-18.468-7.13m-8.485 67.218c3.73 1.18 6.954 2.522 9.508 5.059 3.936 3.91 3.891 6.745.012 10.577-9.363 9.25-18.92 18.318-27.937 27.894-3.783 4.017-7.288 5.095-12.27 2.996-5.196-2.19-8.655-5.525-9.076-11.386-.169-2.344.054-4.626.903-6.874 2.941-7.787 5.696-15.645 8.714-23.402 3.612-9.287 10.113-12.15 19.47-8.787 3.447 1.239 6.877 2.526 10.676 3.923"/><path fill="#275920" d="M378.774 196.492c3.177-12.69 10.825-18.725 23.35-18.752 11.996-.025 23.993-.008 35.989.032 6.925.023 10.679 2.848 10.583 7.852-.088 4.648-4.047 7.598-10.405 7.618-11.33.035-22.66-.013-33.99.008-8.345.016-10.866 2.7-10.737 11.266.131 8.66.259 17.319.33 25.979.017 1.992-.033 4.014-.348 5.975-.78 4.859-3.687 7.256-8.196 6.804-4.677-.47-6.624-3.471-6.639-7.849-.043-12.829.01-25.658.063-38.933m279.768-4.618c1.217 3.898 1.6 7.502 1.579 11.192-.059 10.317.077 20.636-.038 30.953-.068 6.135-3.08 9.45-8.012 9.313-4.803-.135-7.322-3.242-7.347-9.327-.042-10.15.055-20.302.005-30.453-.038-7.655-2.617-10.275-10.124-10.302-11.15-.042-22.3.025-33.449.004-1.652-.004-3.395.053-4.937-.428-3.67-1.145-6.126-3.708-5.954-7.67.181-4.173 2.787-7.092 6.942-7.19 14.799-.35 29.642-.971 44.394.285 7.971.68 13.671 5.686 16.94 13.623M394.16 748.52c2.113 4.472 5.794 5.14 9.784 5.144 11.645.011 23.291-.021 34.937.017 6.286.02 9.73 2.757 9.663 7.525-.066 4.628-3.77 7.776-9.726 7.827-12.643.107-25.29.232-37.93-.013-13.129-.254-22.138-9.611-22.198-22.652a3522 3522 0 0 1 .026-33.938c.029-5.893 2.818-9.19 7.522-9.123 4.38.063 7.158 3.395 7.19 8.981.055 9.981-.033 19.964-.042 29.945-.002 1.989-.167 4.005.773 6.288"/><path fill="#f0c126" d="M742.306 306.217c-1.022 2.325-1.866 4.32-2.821 6.26-4.291 8.714-8.57 10.6-17.637 7.782-5.878-1.827-11.808-3.517-17.597-5.595-6.534-2.346-8.372-6.613-5.571-13.039 2.798-6.419 6.417-12.432 10.691-17.982 3.409-4.427 8.19-5.612 13.428-4.24 5.305 1.388 10.56 3.03 15.731 4.858 7.885 2.788 10.039 8.117 6.614 15.698-.891 1.973-1.807 3.935-2.838 6.258m-80.794 44.569c-3.986 2.823-7.944 3.098-12.196 1.887-4.632-1.32-9.34-2.374-13.98-3.672-5.288-1.48-7.497-4.72-5.573-9.69 3.554-9.178 8.76-17.516 15.132-25.029 2.092-2.465 5.144-3.62 8.496-3.563 6.202.106 12.198 1.486 18.029 3.404 4.169 1.372 6.67 5.082 5.142 8.974-3.803 9.684-7.818 19.392-15.05 27.69m110.67 40.388c-.712-3.224-.48-5.973.392-8.751 2.04-6.506 3.819-13.095 5.927-19.577 2.274-6.995 6.844-9.053 13.476-6.354 16.454 6.696 18.078 9.822 14.206 27.27-1.008 4.543-1.837 9.132-3.005 13.634-1.5 5.788-5.829 8.173-11.404 6.086-4.979-1.864-9.795-4.174-14.635-6.39-2.387-1.092-3.798-3.17-4.957-5.918m-22.833-61.538c-4.415-3.838-4.516-8.412-2.824-13.004 2.062-5.6 4.46-11.094 7.03-16.482 2.605-5.459 7.494-7.428 13.255-5.47 3.76 1.277 7.432 2.856 11.05 4.506 6.187 2.821 8.691 6.98 7.27 13.533-1.403 6.465-3.304 12.872-5.602 19.076-2.184 5.898-6.558 7.633-12.388 5.263-5.837-2.372-11.99-3.992-17.791-7.422m-67.99-57.923c4.826-.465 9.062.652 13.274 1.485 6.022 1.191 8.17 5.888 5.223 11.274a330 330 0 0 1-10.117 17.216c-3.517 5.594-8.078 7.338-14.514 6.084-4.57-.89-9.148-1.739-13.728-2.577-3.742-.684-6.464-3.26-4.79-6.577 5.583-11.064 11.11-22.477 24.652-26.905M569.426 630.029c-1.955-6.097 1.124-11.093 2.28-16.353.674-3.066 1.829-6.028 2.81-9.022 2.222-6.772 7.687-9.8 14.337-7.505 5.64 1.945 11.113 4.376 16.636 6.65 3.462 1.426 3.888 3.616 1.703 6.642-6.32 8.748-12.557 17.556-18.805 26.355-1.009 1.42-2.213 2.895-4.021 2.349-5.61-1.697-11.964-2.277-14.94-9.116m216.421-289.364c.93-9.233 3.63-17.635 6.288-26.026.937-2.955 3.534-4.514 6.6-4.492 8.338.061 16.652 8.706 16.232 17.122-.349 6.972-1.04 13.943-1.964 20.863-.854 6.395-5.346 8.598-11.126 5.82-3.152-1.516-6.238-3.17-9.403-4.659-3.563-1.676-5.871-4.29-6.627-8.628M566.78 591.87c1.097 11.033-3.252 20.531-6.55 30.199-.901 2.644-3.668 4.77-6.817 3.934-4.775-1.267-9.825-2.502-11.7-8.138-1.08-3.246-1.125-6.622-.733-9.891.777-6.472.585-12.95.755-19.429.195-7.397 3.577-9.669 10.318-6.583 5.289 2.422 11.842 3.112 14.727 9.907m199.7-319.214c5.877-13.222 8.374-14.06 20.698-7.246 5.619 3.107 7.196 6.188 6.137 12.71-.637 3.925-1.434 7.842-2.471 11.677-1.072 3.966-4.253 5.565-8.151 4.209-3.292-1.145-6.495-2.55-9.714-3.897-10.114-4.234-11.258-7.194-6.499-17.453m-73.242-17.368c7.444-6.414 14.291-13.043 23.17-16.884 1.837-.794 3.642-1.585 5.692-1.708 2.345-.142 4.325.454 5.545 2.567 1.138 1.972.622 3.88-.64 5.597-4.632 6.294-9.081 12.738-14.011 18.79-4.373 5.367-16.444 6.053-22.105 1.718-1.723-1.318-1.933-3.019-1.234-4.902.705-1.9 1.89-3.504 3.583-5.178m75.436 176.429-13.37 10.29c-2.13-2.059-1.266-3.626-.76-5.173 2.432-7.424 4.833-14.859 7.31-22.268 3.165-9.466 8.323-11.865 17.619-8.26 2.324.901 4.686 1.732 6.936 2.795 5.496 2.597 5.66 4.194.976 7.878-6.146 4.835-12.285 9.679-18.71 14.738m27.061-167.193c-4.42-2.416-8.498-4.646-12.578-6.874-.437-.239-.888-.453-1.318-.703-2.86-1.655-3.94-4.407-2.935-7.246 1.949-5.5 2.784-12.12 8.77-14.869 3.733-1.713 6.484 1.667 8.56 4.505 4.065 5.557 6.647 11.845 8.352 18.49.665 2.593 1.39 5.317-1.092 7.398-2.564 2.15-5.003.532-7.759-.701M554.715 644.566c-2.108 8.295-4.095 16.19-6.171 24.061-.334 1.264-.879 2.564-1.654 3.603-1.91 2.56-3.832 2.041-4.655-.753-.74-2.515-.951-5.249-1.004-7.894-.18-8.986-.303-17.977-.216-26.964.054-5.63 2.102-6.603 7.294-4.052 4.882 2.398 7.435 5.986 6.406 11.999M795.662 293.93c.7-4.862 1.2-9.311 2.116-13.673.887-4.226 4.172-5.6 7.86-3.449 1.25.73 2.645 1.733 3.25 2.967 3.557 7.25 3.776 14.987 2.556 22.775-.322 2.056-2.046 3.387-4.383 3.322-5.436-.15-11.23-5.992-11.399-11.942M557.197 666.342c1.432-6.409 2.77-12.436 5.169-18.101 2.524-5.961 7.74-6.87 12.642-2.509-.16 1.256-1.194 1.485-2.142 1.74-8.315 2.225-11.882 7.157-8.249 14.683 4.571 9.466-2.73 14.373-5.872 20.97-.427.895-1.462 1.44-2.545.824-1.139-.647-1.353-1.821-1.43-3.01-.32-4.908 1.404-9.486 2.427-14.597m107.114-136.964c3.443-6.046 3.905-12.759 6.698-18.616.965-2.023 1.48-5.486 5.007-4.033 3.174 1.307 5.895 7.98 4.005 9.607-6.36 5.477-11.172 12.067-15.257 19.293-.297.526-.926.984-1.86.598-.908-2.362.733-4.34 1.407-6.85"/></svg>